PathFileType	4	(X/Y/Z)	C:\Users\WrightLab\Desktop\Jo\P1_boxCal30.trc
DataRate	CameraRate	NumFrames	NumMarkers	Units	OrigDataRate	OrigDataStartFrame	OrigNumFrames
100.00	100.00	       13	19	mm	100.00	301	       481
Frame#	Time	Headset_Front			Headset_Back			Headset_Left			Headset_Right			Left_Shoulder			Right_Shoulder			Sternum			C7			Left Elbow			Right Elbow			Left Wrist			Right Wrist			Left ASIS			Right ASIS			S2			Left Knee			Right Knee			Left Ankle			Right Ankle			
		X1	Y1	Z1	X2	Y2	Z2	X3	Y3	Z3	X4	Y4	Z4	X5	Y5	Z5	X6	Y6	Z6	X7	Y7	Z7	X8	Y8	Z8	X9	Y9	Z9	X10	Y10	Z10	X11	Y11	Z11	X12	Y12	Z12	X13	Y13	Z13	X14	Y14	Z14	X15	Y15	Z15	X16	Y16	Z16	X17	Y17	Z17	X18	Y18	Z18	X19	Y19	Z19	

301	3.000	-387.80899	1449.12878	1739.76099	-380.84406	136.80414	8.37353							-244.42061	1281.83765	1458.89209	-594.74957	1277.44202	1607.05042	-383.18149	1192.09607	1670.15479	-454.23047	1275.04272	1426.92981	-211.27472	964.86047	1378.48950	-682.01642	1013.26257	1660.72107	-104.82494	781.12305	1398.71313				-287.02341	911.25220	1682.58179	-487.05246	905.14014	1713.93958	-436.15173	888.62805	1387.83569	-190.47604	503.48492	1680.95898	-570.09442	458.26123	1544.56396	-140.01363	150.61320	1781.93738				
302	3.010	-385.30627	1448.72449	1749.13184	-380.84406	136.80414	8.37353							-238.84189	1281.21143	1468.71924	-589.44769	1277.18445	1615.53906	-378.01205	1191.58179	1680.25525	-447.93637	1273.93176	1436.44507	-205.51328	963.37299	1390.10522	-676.15924	1012.35419	1667.85376	-99.50115	780.94574	1409.59778				-281.35855	911.37921	1694.55896	-481.60709	905.33344	1724.79639	-429.95908	887.70667	1399.47876	-187.01457	501.47964	1694.30371	-564.84668	457.47232	1553.43250	-139.34276	143.71902	1784.70923				
303	3.020	-382.73218	1448.17883	1758.27258	-381.46170	136.15309	8.85233							-232.80865	1280.66797	1479.99365	-584.61487	1276.52332	1624.43127	-372.99121	1192.30139	1690.99646				-199.36049	963.28455	1400.27393	-671.02954	1011.09076	1675.69373	-93.99979	780.31531	1420.19043				-276.38083	910.81787	1705.43823	-477.15286	905.23114	1737.28833	-423.98550	887.10913	1411.12585	-183.90578	499.11249	1705.77625	-559.53271	456.65045	1565.16663	-139.08450	138.78725	1788.24792				
304	3.030	-379.46326	1448.80432	1769.06494	-436.23221	1330.65967	1171.59070							-226.88161	1280.14001	1490.65613	-579.21014	1276.28381	1632.38696	-367.90390	1192.38098	1700.92590				-194.26320	962.71625	1411.78052	-665.31128	1010.28638	1681.74756	-88.05888	779.75671	1430.78162				-270.63995	911.93579	1718.67041	-471.77661	905.08307	1746.84656	-417.86053	886.42059	1421.98584	-179.96922	497.45078	1718.29993	-553.90863	456.03091	1575.04736	-178.50404	73.60250	1779.71301				
305	3.040	-377.27725	1448.81982	1778.32690	-259.08380	235.28191	80.43530							-220.87160	1280.09460	1500.77820	-574.15125	1276.20715	1640.45325	-362.95636	1193.50110	1711.92261				-188.61331	962.10767	1422.03711	-660.18109	1009.17590	1688.31238	-82.46919	779.45483	1441.87720				-265.59247	911.96259	1729.40991	-466.68839	905.96423	1758.09521	-410.60364	886.15717	1434.32056	-176.35364	496.59894	1729.62061	-549.09113	456.06064	1586.50415	-135.18333	137.48093	1801.22900				
306	3.050	-374.62244	1449.52368	1787.14575	401.82660	747.70898	-406.54309							-214.61656	1280.07715	1511.95508	-569.11176	1276.29712	1649.21277	-357.63535	1194.20947	1722.18469				-181.79991	962.68182	1433.70154	-654.67310	1008.40002	1694.24768	-76.93095	779.38092	1453.97363	-631.48346	840.61951	1889.97168	-260.42758	913.76013	1742.24292	-460.79425	906.02380	1768.25134	-403.64148	885.33966	1445.28503	-170.71101	495.71146	1742.90381	-544.17157	455.98566	1598.17432	-173.61137	66.76987	1792.92346				
307	3.060	-371.96527	1451.38318	1797.92126	-418.86530	1330.02808	1201.62354							-208.36856	1280.41125	1523.71228	-564.16150	1276.66663	1657.36487	-352.82535	1195.38855	1733.25024				-176.08723	962.27844	1444.96875	-649.34705	1008.10419	1699.20447	-70.67522	779.10468	1466.04895	-628.40790	839.74969	1896.35229	-255.27509	914.15552	1753.59973	-455.32507	907.18427	1780.03528	-395.91714	885.44714	1457.17468	-165.72444	494.50549	1752.03088	-540.21417	456.65436	1609.25024	-170.21814	65.36067	1799.05579				
308	3.070	-369.75433	1452.83691	1807.55676	-201.23895	122.76645	1910.73047							-202.11649	1280.97485	1533.94812	-559.41284	1277.40100	1664.96667	-347.99753	1196.42017	1743.24158				-169.99765	963.04028	1457.07410	-644.09808	1007.61371	1705.18079	-64.30893	779.70026	1478.29797	-625.01105	838.42035	1901.33167	-248.86880	915.06189	1766.12427	-449.84067	908.46881	1791.84241	-387.75986	884.97394	1468.94531	-159.74591	494.77060	1761.74414	-535.83575	457.45502	1622.97839	-122.32507	132.35847	1820.23621				
309	3.080	-367.92163	1454.11145	1816.27490	-197.73784	121.60466	1915.04456							-195.95923	1281.21667	1545.40930	-554.38855	1278.09521	1673.88245	-343.55490	1198.66223	1753.86658				-163.44104	963.26978	1469.61584	-639.03143	1007.38788	1711.25940	-58.73851	779.37610	1491.43750	-621.75586	836.91956	1906.13757	-243.75360	916.32135	1777.94897	-444.03479	909.16992	1802.37964	-381.55908	886.44019	1479.54968	-153.43803	496.59991	1771.91016	-532.38263	456.90060	1636.52075	-164.68047	59.99810	1806.00745				
310	3.090	-365.42374	1455.85132	1826.29761	-401.85669	1331.54126	1232.44324							-190.05493	1282.35913	1555.92786	-549.81512	1279.05859	1681.89941	-339.08939	1200.72192	1764.51733				-157.20206	963.90070	1480.84802	-633.84698	1007.74701	1715.71692	-51.84703	779.93616	1505.05994	-618.67413	835.22125	1910.76880	-238.38763	918.75922	1790.43860	-438.74237	911.33215	1813.22473	-374.46906	887.78638	1490.62390	-146.92903	497.27597	1781.82361	-528.50256	457.57797	1652.63306	-164.53889	60.27250	1809.89246				
311	3.100	-363.08505	1457.83850	1836.36951	-196.15489	117.51977	1917.08765							-183.99744	1283.47815	1567.50842	-544.87531	1280.10205	1691.09155	-334.24460	1201.93237	1774.13599				-150.24530	965.37726	1492.27551	-628.73413	1008.04272	1720.31201	-44.99332	780.70624	1518.10547	-615.36530	833.52118	1913.63477	-232.07808	921.05762	1803.45129	-433.13638	911.90991	1822.65295	-367.13211	887.68481	1501.37720	-141.34857	499.14749	1790.77502	-526.22784	458.22086	1668.53870	-114.56169	127.85379	1832.64343				
312	3.110	-361.88452	1460.09412	1846.60889	-195.91447	117.28699	1919.10229							-178.19978	1284.30627	1579.74475	-540.25085	1281.79346	1698.70251	-330.72253	1203.02698	1784.86035				-143.57246	966.11395	1505.86145	-623.63354	1008.90955	1725.87256	-37.97715	781.67633	1533.09912	-613.49597	831.53259	1917.09790	-227.25212	923.25055	1815.23108	-428.64011	913.99518	1833.11792	-361.10532	889.20728	1511.63660	-136.54398	501.13617	1798.53906	-524.38605	457.57111	1688.88831	-163.72107	58.81166	1813.55994				
313	3.120	-359.97491	1461.75940	1854.88110	-364.01212	146.06157	-0.23177							-172.60081	1285.68726	1590.74402	-535.53461	1283.09937	1707.33105	-326.55252	1205.37598	1794.93958				-136.30153	966.95819	1518.28101	-618.65942	1009.86926	1730.73975	-31.84389	783.36853	1547.57385	-610.69781	829.49231	1919.21667	-221.78569	925.14862	1826.33618	-422.91992	915.76550	1842.38708	-354.21707	889.16144	1521.67029	-131.47723	502.70822	1806.48010	-521.97064	458.44797	1704.60364	-163.58417	58.96856	1814.08459				
